<?xml version="1.0" encoding="utf-8"?>
<!-- Generator: Adobe Illustrator 18.0.0, SVG Export Plug-In . SVG Version: 6.00 Build 0)  -->
<!DOCTYPE svg PUBLIC "-//W3C//DTD SVG 1.1//EN" "http://www.w3.org/Graphics/SVG/1.1/DTD/svg11.dtd">
<svg version="1.1" id="Layer_1" xmlns="http://www.w3.org/2000/svg" xmlns:xlink="http://www.w3.org/1999/xlink" x="0px" y="0px"
	 viewBox="0 185 612 504" enable-background="new 0 185 612 504" xml:space="preserve">
<path fill="#DD3E40" d="M608.2,406.1L493.6,663.7c-6.8,15.4-22.1,25.3-39,25.3H157.3c-16.8,0-32.2-9.9-38.9-25.3L3.7,406.1
	c-5.8-13.2-4.7-28.5,3.2-40.6c7.9-12.1,21.3-19.4,35.8-19.4h67.2l63.8-136.5c10-21.3,35.4-30.6,56.7-20.6s30.6,35.4,20.6,56.7
	L204,346.2h204l-46.9-100.5c-9.9-21.3-0.7-46.8,20.6-56.7s46.6-0.7,56.7,20.5L502.2,346h67.2c14.5,0,27.9,7.3,35.8,19.4
	C613,377.6,614.2,392.9,608.2,406.1z"/>
</svg>
