<?xml version="1.0" encoding="utf-8"?>
<!-- Generator: Adobe Illustrator 18.0.0, SVG Export Plug-In . SVG Version: 6.00 Build 0)  -->
<!DOCTYPE svg PUBLIC "-//W3C//DTD SVG 1.1//EN" "http://www.w3.org/Graphics/SVG/1.1/DTD/svg11.dtd">
<svg version="1.1" id="Layer_1" xmlns="http://www.w3.org/2000/svg" xmlns:xlink="http://www.w3.org/1999/xlink" x="0px" y="0px"
	 viewBox="39.7 175 536.6 441.9" enable-background="new 39.7 175 536.6 441.9" xml:space="preserve">
<path fill="#FFFFFF" d="M573,368.9L472.5,594.7c-6,13.5-19.4,22.2-34.2,22.2H177.6c-14.7,0-28.2-8.7-34.1-22.2L42.9,368.9
	c-5.1-11.6-4.1-25,2.8-35.6s18.7-17,31.4-17H136l55.9-119.7c8.8-18.7,31-26.8,49.7-18.1s26.8,31,18.1,49.7l-41.1,88.1h178.9
	l-41.1-88.1c-8.7-18.7-0.6-41,18.1-49.7c18.7-8.7,40.9-0.6,49.7,18l55.8,119.7h58.9c12.7,0,24.5,6.4,31.4,17
	C577.2,343.9,578.2,357.3,573,368.9z"/>
</svg>
