<?xml version="1.0" encoding="utf-8"?>
<!-- Generator: Adobe Illustrator 18.0.0, SVG Export Plug-In . SVG Version: 6.00 Build 0)  -->
<!DOCTYPE svg PUBLIC "-//W3C//DTD SVG 1.1//EN" "http://www.w3.org/Graphics/SVG/1.1/DTD/svg11.dtd">
<svg version="1.1" id="Layer_1" xmlns="http://www.w3.org/2000/svg" xmlns:xlink="http://www.w3.org/1999/xlink" x="0px" y="0px"
	 viewBox="0 0 376.7 98.3" enable-background="new 0 0 376.7 98.3" xml:space="preserve">
<g>
	<path fill="#B4353B" d="M154.1,17.1c0,2.4-2,4.4-4.4,4.4c-2.4,0-4.4-2-4.4-4.4s2-4.4,4.4-4.4C152.1,12.7,154.1,14.7,154.1,17.1z"/>
	<path fill="#B4353B" d="M169.3,17.1c0,2.4-2,4.4-4.4,4.4s-4.4-2-4.4-4.4s2-4.4,4.4-4.4S169.3,14.7,169.3,17.1z"/>
	<path fill="#B4353B" d="M161.4,4.4c0,2.4-2,4.4-4.4,4.4c-2.4,0-4.4-2-4.4-4.4c0-2.4,2-4.4,4.4-4.4C159.5,0,161.4,2,161.4,4.4z"/>
</g>
<g>
	<path fill="#FFFFFF" d="M9.5,88.9h1.9c0.8,0,1.4,0.1,1.8,0.3c0.4,0.2,0.7,0.5,1,0.8c0.2,0.4,0.4,0.8,0.4,1.3c0,0.4-0.1,0.8-0.3,1.2
		c-0.2,0.4-0.5,0.6-0.9,0.9c0.5,0.2,0.9,0.4,1.2,0.6c0.3,0.2,0.5,0.5,0.6,0.8c0.2,0.3,0.2,0.7,0.2,1.1c0,0.8-0.3,1.4-0.8,2
		c-0.6,0.5-1.3,0.8-2.3,0.8H9.5V88.9z M10.4,89.8v3.1H11c0.7,0,1.2-0.1,1.5-0.2c0.3-0.1,0.6-0.3,0.7-0.6c0.2-0.3,0.3-0.6,0.3-0.9
		c0-0.4-0.2-0.8-0.5-1c-0.3-0.3-0.8-0.4-1.5-0.4H10.4z M10.4,93.9v3.7h1.2c0.7,0,1.2-0.1,1.6-0.2c0.3-0.1,0.6-0.4,0.8-0.6
		c0.2-0.3,0.3-0.6,0.3-1c0-0.4-0.1-0.8-0.4-1.1c-0.3-0.3-0.7-0.5-1.2-0.7c-0.3-0.1-0.9-0.1-1.7-0.1H10.4z"/>
	<path fill="#FFFFFF" d="M27.8,88.9l4.5,9.6h-1l-1.5-3.2h-4.2l-1.5,3.2H23l4.6-9.6H27.8z M27.7,90.9L26,94.4h3.3L27.7,90.9z"/>
	<path fill="#FFFFFF" d="M41.5,97.6h4.1v-8.7h1v8.7h4.2v-8.7h1v9.6H40.5v-9.6h1V97.6z"/>
	<path fill="#FFFFFF" d="M75.2,93v-4.2h1v9.6h-1V94h-0.7c-1,0-1.7,0-2.1-0.1c-0.4-0.1-0.8-0.3-1.2-0.5c-0.3-0.3-0.6-0.6-0.7-1
		c-0.1-0.4-0.2-0.9-0.2-1.6v-1.9h0.9v2c0,0.8,0.2,1.4,0.5,1.7c0.3,0.3,0.9,0.5,1.6,0.5l0.7,0l0.3,0H75.2z"/>
	<path fill="#FFFFFF" d="M89.1,88.9l4.5,9.6h-1l-1.5-3.2h-4.2l-1.5,3.2h-1.1l4.6-9.6H89.1z M89,90.9l-1.7,3.5h3.3L89,90.9z"/>
	<path fill="#FFFFFF" d="M109.4,98.5h-1v-7.4l-6.4,7.4h-0.2v-9.6h1v7.5l6.4-7.5h0.2V98.5z M103.3,86.6h0.9c0.1,0.2,0.3,0.4,0.6,0.5
		c0.2,0.1,0.5,0.2,0.9,0.2c0.4,0,0.6,0,0.8-0.2c0.2-0.1,0.4-0.3,0.6-0.5h0.8c-0.1,0.4-0.3,0.7-0.7,1c-0.4,0.3-0.9,0.4-1.6,0.4
		c-0.6,0-1.2-0.1-1.6-0.4C103.7,87.3,103.4,87,103.3,86.6z"/>
	<path fill="#FFFFFF" d="M118.5,88.9h1v4h4.9v-4h1v9.6h-1v-4.7h-4.9v4.7h-1V88.9z"/>
	<path fill="#FFFFFF" d="M134.4,88.9h1V93h0.7c1.3,0,2.2,0.1,2.7,0.2c0.6,0.1,1,0.4,1.3,0.8c0.3,0.4,0.5,1,0.5,1.7
		c0,0.7-0.2,1.2-0.5,1.7c-0.3,0.4-0.7,0.7-1.3,0.9c-0.5,0.1-1.4,0.2-2.5,0.2h-1.9V88.9z M135.3,97.6h1c1.1,0,1.8-0.1,2.1-0.2
		c0.3-0.1,0.6-0.3,0.8-0.6c0.2-0.3,0.3-0.6,0.3-1.1c0-0.5-0.1-0.9-0.4-1.2c-0.2-0.3-0.6-0.5-0.9-0.6c-0.4-0.1-1.1-0.1-2.1-0.1h-0.8
		V97.6z M141.7,88.9h1v9.6h-1V88.9z"/>
	<path fill="#FFFFFF" d="M159.3,98.5h-1v-7.4l-6.4,7.4h-0.2v-9.6h1v7.5l6.4-7.5h0.2V98.5z M153.2,86.6h0.9c0.1,0.2,0.3,0.4,0.6,0.5
		c0.2,0.1,0.5,0.2,0.9,0.2c0.4,0,0.6,0,0.8-0.2c0.2-0.1,0.4-0.3,0.6-0.5h0.8c-0.1,0.4-0.3,0.7-0.7,1c-0.4,0.3-0.9,0.4-1.6,0.4
		c-0.6,0-1.2-0.1-1.6-0.4C153.6,87.3,153.3,87,153.2,86.6z"/>
	<path fill="#FFFFFF" d="M187.8,90.7l-0.8,0.6c-0.4-0.5-0.9-1-1.5-1.2c-0.6-0.3-1.2-0.4-1.9-0.4c-0.8,0-1.5,0.2-2.1,0.6
		c-0.7,0.4-1.2,0.9-1.5,1.5c-0.4,0.6-0.5,1.3-0.5,2.1c0,1.2,0.4,2.2,1.2,2.9c0.8,0.8,1.8,1.2,3.1,1.2c1.4,0,2.5-0.5,3.4-1.6l0.8,0.6
		c-0.5,0.6-1.1,1.1-1.8,1.4c-0.7,0.3-1.5,0.5-2.4,0.5c-1.7,0-3-0.6-4-1.7c-0.8-0.9-1.2-2.1-1.2-3.4c0-1.4,0.5-2.6,1.5-3.6
		c1-1,2.2-1.4,3.7-1.4c0.9,0,1.7,0.2,2.4,0.5C186.8,89.5,187.4,90,187.8,90.7z"/>
	<path fill="#FFFFFF" d="M201.1,88.6c1.5,0,2.7,0.5,3.7,1.5c1,1,1.5,2.2,1.5,3.6c0,1.4-0.5,2.6-1.5,3.6c-1,1-2.2,1.5-3.6,1.5
		c-1.4,0-2.6-0.5-3.6-1.5c-1-1-1.5-2.2-1.5-3.6c0-0.9,0.2-1.8,0.7-2.6c0.4-0.8,1.1-1.4,1.8-1.9C199.3,88.9,200.2,88.6,201.1,88.6z
		 M201.1,89.6c-0.7,0-1.4,0.2-2,0.6c-0.6,0.4-1.1,0.9-1.5,1.5c-0.4,0.6-0.5,1.3-0.5,2.1c0,1.1,0.4,2.1,1.2,2.9
		c0.8,0.8,1.8,1.2,2.9,1.2c0.7,0,1.4-0.2,2.1-0.5c0.6-0.4,1.1-0.9,1.5-1.5c0.4-0.6,0.5-1.3,0.5-2.1c0-0.8-0.2-1.5-0.5-2.1
		c-0.4-0.6-0.9-1.1-1.5-1.5C202.5,89.8,201.8,89.6,201.1,89.6z"/>
	<path fill="#FFFFFF" d="M214.4,98.5l1.4-9.6h0.2l3.9,7.9l3.9-7.9h0.2l1.4,9.6h-0.9l-1-6.9l-3.4,6.9h-0.2l-3.5-7l-0.9,7H214.4z"/>
	<path fill="#FFFFFF" d="M233.9,88.9h5.5v0.9h-4.6v3h4.5v0.9h-4.5v3.8h4.5v0.9h-5.5V88.9z"/>
	<path fill="#FFFFFF" d="M255.6,98.5h-1l-3.2-7.5l-3.3,7.5h-1l4.2-9.6h0.2L255.6,98.5z"/>
	<path fill="#FFFFFF" d="M264,88.9h1V93h0.7c1.3,0,2.2,0.1,2.7,0.2c0.6,0.1,1,0.4,1.3,0.8c0.3,0.4,0.5,1,0.5,1.7
		c0,0.7-0.2,1.2-0.5,1.7c-0.3,0.4-0.7,0.7-1.3,0.9c-0.5,0.1-1.4,0.2-2.6,0.2H264V88.9z M264.9,97.6h1c1.1,0,1.8-0.1,2.1-0.2
		c0.3-0.1,0.6-0.3,0.8-0.6c0.2-0.3,0.3-0.6,0.3-1.1c0-0.5-0.1-0.9-0.4-1.2c-0.2-0.3-0.6-0.5-0.9-0.6c-0.4-0.1-1.1-0.1-2.1-0.1h-0.8
		V97.6z"/>
	<path fill="#FFFFFF" d="M278.8,88.9h5.5v0.9h-4.6v3h4.5v0.9h-4.5v3.8h4.5v0.9h-5.5V88.9z"/>
</g>
<g>
	<g>
		<path fill-rule="evenodd" clip-rule="evenodd" fill="#B4353B" d="M369,32.6c0.6,0,0.2-1.1,1-1c7.1,1.5,1.8,15.4,6.7,19.1
			c-0.9,5.8,0.5,13.3-0.3,20.4c-0.6,0.1,0,1.5-1.3,1c1.8,2.8,0.3,5.9,0.3,8.3c0.1,0.4,0.6,0.3,0.6,0c0.6,6.7,0.1,15-5.4,16.3
			c-2,0.5-4.7-1.2-5.7,1.6c-0.4,0-0.3-0.6-0.3-1c-1.3,2.2-3.2,1.2-5.4,2.2c-1.5-0.1,0.7-1,0.6-1.6c-1.2-0.3-2.1,1.4-3.5,1.6
			c-3.1,0.4-7.9-1.3-12.4-1.9c-2.1-0.3-6.6,0.7-6.4-0.6c-3.4,0.7-7,2.3-9.6,0c-6.2,2.4-14-1.1-21.1-1c-2.2-1.4-3.1-6.5-1.3-9.2
			c-1.7-1.9-2.9-6.9-1.9-9.6c-0.1-0.7-0.6-0.9-1-1.3c-0.4-9,0.9-22.6,1.6-32.5c0.3,0,0.3,0.3,0.6,0.3c-0.6-4.1,0.1-7-0.3-11.8
			c1.4-2.6,5.9-2,9.3-2.5c1.2,0.7-1.2,0.5-1,1.3c2.3-0.9,3.2-0.7,4.8,0.3c2.6-2.7,6-1.8,9.6-2.2c4.7-0.5,11-0.4,15.6-1
			c1.3-0.2-0.4,1.2,1,1.3c0.4-0.1,0.3-0.8,0.3-1.3c3.6,0,9.4,0.3,14.4,0.6c-0.2,0.3-0.3,0.5-0.3,1c3.3-1.4,7.9,0.7,9.9,2.5
			C367.9,30.7,368.4,31.1,369,32.6z M351.1,30.1c-0.2-0.2-1.8-0.7-1.9,0C349.5,30.3,351,30.8,351.1,30.1z M370,33.9
			c0.9-0.4,1.6,0.9,1.9,0c-1.3-0.7-0.8-1.2-1.9-1.9C369.3,32.7,370.1,32.9,370,33.9z M312.9,41.9c0-0.8,0.5-0.9,0.3-1.9
			C312,40.2,311.6,41.6,312.9,41.9z M372.5,84.6c0.1-1.2,1.9-3,0.6-3.5C373.2,82.3,371.4,83.4,372.5,84.6z M369,86.5
			c0.1-0.7,0.7-1.7-0.3-1.9C369,85.8,367.9,86.3,369,86.5z M370.6,92c-0.1-0.3-0.3-0.4-0.6-0.3c-0.1,0.8,0.7,0.8,1.3,1
			c-0.1-0.9,1.3-1.2,0-1.6C371.3,91.6,371,91.8,370.6,92z M313.8,94.5c-1.4,0-1.3-1.4-3.2-1C311.4,94.7,313.1,95.4,313.8,94.5z"/>
	</g>
	<g>
		<g>
			<path fill="#FFFFFF" d="M347,86.2L347,86.2L347,86.2z"/>
			<path fill="#FFFFFF" d="M347,86.2L347,86.2L347,86.2z"/>
			<path fill="#FFFFFF" d="M347,86.2C347,86.2,347,86.2,347,86.2C347,86.2,347,86.2,347,86.2z"/>
			<path fill="#FFFFFF" d="M347,86.2C347,86.2,347,86.2,347,86.2C347,86.2,347,86.2,347,86.2z"/>
			<path fill="#FFFFFF" d="M347,86.2C347,86.2,347,86.2,347,86.2S347,86.2,347,86.2z"/>
			<path fill="#FFFFFF" d="M346.9,86.2C346.9,86.2,346.9,86.2,346.9,86.2C346.9,86.2,346.9,86.2,346.9,86.2z"/>
			<path fill="#FFFFFF" d="M346.9,86.2C346.9,86.2,346.9,86.2,346.9,86.2L346.9,86.2z"/>
			<path fill="#FFFFFF" d="M346.9,86.2L346.9,86.2L346.9,86.2z"/>
			<path fill="#FFFFFF" d="M346.9,86.2L346.9,86.2L346.9,86.2z"/>
			<path fill="#FFFFFF" d="M346.9,86.2L346.9,86.2L346.9,86.2z"/>
			<path fill="#FFFFFF" d="M347,86.2C347,86.2,347,86.2,347,86.2C347,86.2,347,86.2,347,86.2z"/>
			<path fill="#FFFFFF" d="M346.9,86.2L346.9,86.2L346.9,86.2z"/>
			<path fill="#FFFFFF" d="M347,86.2L347,86.2L347,86.2z"/>
			<path fill="#FFFFFF" d="M347,86.2L347,86.2L347,86.2z"/>
			<path fill="#FFFFFF" d="M347,86.2L347,86.2L347,86.2z"/>
			<path fill="#FFFFFF" d="M347,86.2L347,86.2L347,86.2z"/>
			<path fill="#FFFFFF" d="M347,86.2L347,86.2L347,86.2z"/>
			<path fill="#FFFFFF" d="M347,86.2L347,86.2L347,86.2z"/>
			<path fill="#FFFFFF" d="M347,86.2L347,86.2L347,86.2z"/>
			<path fill="#FFFFFF" d="M347,86.2L347,86.2L347,86.2z"/>
			<path fill="#FFFFFF" d="M347,86.2C347,86.2,347,86.2,347,86.2S347,86.2,347,86.2z"/>
			<path fill="#FFFFFF" d="M347,86.2L347,86.2L347,86.2z"/>
			<path fill="#FFFFFF" d="M347,86.2C347,86.2,347,86.2,347,86.2C347,86.2,347,86.2,347,86.2z"/>
			<path fill="#FFFFFF" d="M347,86.2L347,86.2L347,86.2z"/>
			<path fill="#FFFFFF" d="M347,86.2C347,86.2,347,86.2,347,86.2C347,86.2,347,86.2,347,86.2z"/>
			<path fill="#FFFFFF" d="M346.9,86.2L346.9,86.2L346.9,86.2z"/>
			<path fill="#FFFFFF" d="M346.9,86.2L346.9,86.2L346.9,86.2z"/>
			<path fill="#FFFFFF" d="M346.9,86.2L346.9,86.2L346.9,86.2z"/>
			<path fill="#FFFFFF" d="M346.9,86.2L346.9,86.2L346.9,86.2z"/>
			<path fill="#FFFFFF" d="M346.9,86.2L346.9,86.2L346.9,86.2z"/>
			<path fill="#FFFFFF" d="M365.9,71.4c-1.3-1.7-5-2.7-5.2-2.8c-0.2,0-0.1-0.2-0.1-0.2c0.3-0.1,1.7-1,1.9-1.3
				c0.3-0.3,0.4-1.3,0.2-1.8c-0.1-0.5-0.6-1.6-1.1-2c-0.5-0.3-1.2,0.1-1.9,0.4c-0.7,0.3-1.4,1-1.9,1.4c-0.6,0.4-0.9,0.6-0.9,0.5
				c0-0.1,0-0.4-0.5,0c-0.5,0.4-0.6,0-0.8-0.1c-0.1-0.1-0.2-0.2-0.9-0.3c-0.7-0.1-1.9,0.6-2,0.7c-0.1,0.1-0.4,0.2-0.5,0.3
				c-0.1,0.1-0.3,0.1-0.5,0.4c-0.2,0.3-0.2,0.2-0.2,0.4c0,0.2-0.1,0.2-0.1,0.3c0,0.1-0.1,0.1-0.2,0.2c-0.1,0.1-0.1,0.1-0.5,0.1
				c-0.4,0,0,0,0.4-0.6c0.4-0.6,0-0.1,0.1-0.4c0.1-0.3,0,0,0.3-0.7c0.3-0.7,0.1-0.1,0.2-0.4c0.1-0.2,0.1-0.2,0.2-0.4
				c0.1-0.1-0.1-0.3-0.1-0.3l-0.2-0.1c0,0-0.2,0-0.3,0c-0.1,0-0.2,0-0.2,0l-0.4,0.2c0,0-1.2,1-1.8,1.6c-0.6,0.6-0.9,1.5-1,2.3
				c-0.1,0.8,0.6,2.1,1.1,2.5c0.6,0.3,1,0,1.5-0.5c0.4-0.6,1.2-1.4,1.2-1.4s0-0.1,0.1-0.2c0.1-0.1,0-0.2,0.3-0.3
				c0.2-0.1,0.9-0.7,0.9-0.7l-0.5,0.1c0,0-0.1,0,0.2-0.3c0.3-0.2,0.8-0.6,1-0.5c0.3,0.1,1.5,1.4,1.5,1.4c-2.2,0.6-5.6,3.5-7,4.7
				c-1.4,1.2-2.5,2.4-3.8,3.3c-1.2,0.9-1.7,0.9-2,0.9c-0.2,0-0.4-1.3-0.6-1.2c-0.2,0.1-0.4,0.8-0.5,1.2c-0.1,0.3,0.4,0.8,0.2,1
				c-0.1,0.1-0.6-1-0.6-1l-0.1,0.4c-0.2,1.3,1.3,2.4,3.2,2.8c1.9,0.4,3.3-1.5,3.3-1.5c4.3-4.7,6.4-6.2,6.5-6.2c0,0,0,0.2,0.1,0.3
				c0.1,0.1,0,0.2,0,0.3c0,0.1,0,0.2,0.2,0.5c0.1,0.3,0,0.2,0.1,0.3c0.1,0.2,0,0.3,0,0.4c0,0.1,0,0.3,0,0.4c0,0.1,0,0.3,0,0.5
				c0,0.1,0,1.8-0.3,2.3c-0.3,0.5-0.9,0.5-1.1,0.7c-0.2,0.1-0.3-0.1-0.3-0.1s-1,0.4-1.4,0.5c-0.4,0.1-1.3,0.3-1.9,0.2
				c-0.6-0.1-0.5,0.1-0.5,0.1c0.7,1.1,1,1.1,1.2,1.3c0.2,0.1,1.3,0.4,1.8,0.3c0.4,0,1.1,0,1.5-0.2c0.4-0.2,0.4,0,0.4,0
				c0,0.1-0.1,0.4-0.1,0.5c0,0.2,0,0.2,0,0.4c0,0.1-0.1,0.2,0,0.4c0,0.1,0,0.2,0,0.3c0,0.1,0,0.4,0.1,0.5c0,0.2-0.1,0.3-0.1,0.3
				l-0.3,0.2c0,0-0.6,0.3-0.7,0.3c-0.1,0.1,0,0-0.2,0.1c-0.2,0.1-0.3,0.3-0.3,0.3l-0.4,0.2l-0.6,0.1c0,0-0.2,0.1-0.2,0.3
				c0,0.1-0.4,0.3-0.4,0.3l-0.7,0.2c0,0-0.6,0.2-0.7,0.3c-0.1,0.1-0.4,0.1-0.5,0.2c-0.2,0.1-0.5,0.1-0.5,0.1s0.1-0.1,0.2-0.2
				c0.2-0.1,0.1-0.2,0.1-0.2s-0.4,0.2-0.4,0.1c0,0,0.1-0.1,0.2-0.1c0.1,0,0.1-0.1,0.2-0.1c0.1,0,0.3-0.2,0.5-0.3
				c0.1-0.1,0.5-0.3,0.8-0.4c0.3-0.1,0.5-0.3,0.5-0.3l2.7-1.6c-0.3,0.2-0.8,0.4-1.4,0.6c-0.8,0.3-4.3,2.3-4.3,2.3s-0.2,0.1-0.5,0
				c0,0,0,0-0.1,0c-0.1,0-0.2,0-0.2,0c-0.1,0,0,0,0.1-0.1c0,0,0,0,0.1,0c0,0,0,0,0,0c0,0,0,0,0,0c0.1-0.1,0.1-0.1,0.2-0.2
				c0.1,0,0.1,0.3,1-0.5c0.9-0.8,5.7-3.6,5.7-3.6c-0.9,0.2-3.8,2-4.4,2.5c-0.6,0.5-2.5,1.1-2.5,1.1s-0.2,0-0.3,0.1
				c-0.1,0-0.3,0.1-0.4,0.1c-0.1,0-0.5,0.2-0.5,0.2l-0.2,0.1l-0.4,0.1l-0.3,0c0,0-0.3,0.1-0.4,0.3c-0.1,0.1-0.3,0.6-0.3,0.6
				s0-0.1,0-0.2c0-0.1,0-0.5,0-0.5l-0.3,0.2c0,0,0,0-0.1,0.4c-0.1,0.4-0.1,0.2,0,0.2c0,0.1,0.1,0.1,0.1,0.2c0,0.1-0.1,0.2-0.1,0.4
				c0,0.2-0.6,0.4,0.5,1.4c1.1,1,2.1,0.8,2.7,0.7c0.5-0.1,1.2-1.1,1.2-1.1s0.2-0.1,0.3-0.2c0.1,0,0.4-0.3,0.5-0.4c0.2-0.1,0,0,0-0.1
				c0-0.1,0.4-0.3,0.6-0.5c0.1-0.2,0.1-0.2,0.2-0.2c0.1,0,0.3-0.1,0.6-0.3c0.3-0.1,0.3-0.2,0.5-0.4c0.2-0.2,0.2-0.3,0.4-0.4
				c0.1-0.1,0.3-0.2,0.6-0.4c0.3-0.2,0.5-0.3,0.9-0.5c0.4-0.2,0.5-0.4,0.8-0.6c0.2-0.2,0.8-0.4,0.8-0.4c0.1,0.3,0.1,2.6,0,2.8
				c-0.1,0.1,0,0-0.1,0.1c-0.1,0.1-0.1-0.1-0.1-0.1s-0.1,0-0.2,0c-0.1,0-0.2,0-0.3,0c-0.1,0-0.2,0-0.3-0.1c0,0-0.3,0-0.2,0.1
				c0.1,0.1-0.1,0.1-0.1,0.1s0,0-0.1,0c0,0-0.3-0.1-0.5-0.1l0.2,0.2l-0.2,0.1l-0.3-0.2l-0.5,0.2c0,0,0,0,0.1,0.1
				c0.1,0.1,0.1,0,0.2,0.1c0.1,0,0.1,0,0.2,0.2c0.1,0.1,0.2,0.1,0.7,0.4c0.5,0.3,0.8,0.7,0.8,0.7s0,0,0,0.1c0,0.1,0.1,0.1,0.1,0.3
				c0.1,0.1,0.1,0.2,0.1,0.3c0,0.1,0,0.2,0.1,0.3c0,0.1,0,0.2,0,0.3c0,0.1-0.1,0.2-0.1,0.3c0,0.1,0,0.1,0.2,0.2l0.1,0.3
				c0,0,0,0,0,0.1c0,0.1,0.1,0.2,0.1,0.2s0.1,0.1,0.2,0.1c0.1,0,0.1,0,0.3,0c0.1,0,0.2,0.1,0.3,0.2c0.1,0.1,1.2,0,1.2,0s0,0,0.1,0
				c0.1,0,0.2,0,0.3-0.1c0.1-0.1,0.1-0.2,0.1-0.2s0.1-0.1,0.2-0.2c0.1-0.1,0.1-0.2,0.1-0.2c0-0.1,0-0.1,0-0.1l0.1-0.2l0.1-0.1
				l-0.1-0.2L357,90l0-0.2c0,0,0-0.1,0-0.2c0-0.1-0.1-0.1-0.2-0.3c-0.2-0.2,0-0.2,0-0.2s-0.1-0.3-0.2-0.7c-0.1-0.4,0-0.4-0.3-0.8
				c-0.2-0.4-0.3-1.6-0.3-2.2c0-0.6-0.2-0.9,0.6-1.3c0.9-0.4,2.2-0.7,3.8,0c1.6,0.7,2.5,2.2,2.4,2.9c-0.1,0.6-1,0.8-1,0.8l-0.2,0.2
				l-0.5,0.3l-0.4,0.6c0,0-1.3,0.9-1.2,0.9c0.1,0,0.2,0,1.3,0.2c1.1,0.1-1.7,0.9-1.2,0.8c0.5,0,2.5-0.7,2.9-0.8
				c0.4-0.1,1.6-0.2,1.9-0.2c0.4,0,2.1-0.4,2.1-0.4s0.2-0.1,0.5-0.3c0.3-0.2,0,0,0-0.1c0-0.1,0-0.3,0-0.6c0-0.3-0.1-0.3,0-0.7
				c0.1-0.4,0-0.5-0.3-1c-0.4-0.5-1-1.7-2.1-2.5c-1.2-0.7,0.3-0.1-2.3-1.9c-2.6-1.8-6.3-0.5-6.4-0.9c0-0.4,0.6-1.7,1-2.2
				c0.4-0.5,1.4-1.1,1.5-1.2c0.1-0.1,0.2-0.1,0.3-0.2l0,0.1c0,0,0.1,0.1,0.3,0.2c0,0,0.3,0,0.5,0c0.1,0,0.4,0.2,0.4,0.2l-1.2,0.1
				c0,0,0.1,0,0.2,0c0.1,0,0.1,0.1,0.4,0.1c0.2,0,0.9,0.1,0.9,0.1l0.3,0.1c0,0,0.2,0,0.5,0.1c0.3,0.1,0.8-0.1,0.8-0.1
				c0.1,0,0.4,0,0.4,0c0.1,0,0.4,0,0.4,0s0.2,0,0.3,0c0.1,0-0.2,0.2-0.2,0.2l-0.1,0c0,0,0.1,0,0.2,0c0.1,0,0.3,0.1,0.5,0.1l0.5-0.1
				l0.2,0.2c0,0,0.4-0.1,0.7-0.2c0.3,0,0.9-0.4,0.9-0.4s0.2,0,0.3,0c0.1,0,0.3-0.2,0.3-0.2s0.1-0.1,0.2-0.1c0.1,0,0.2-0.2,0.2-0.2
				l0.1,0c0,0,0,0,0.1,0c0,0,0-0.1,0.2-0.4c0.1-0.3,0.2-0.2,0.2-0.2l0.4-0.6C368.4,75.2,367.2,73,365.9,71.4z M353,66.8
				c-0.1,0.1-0.1,0.1-0.2,0.2c-0.1,0,0,0-0.1,0c-0.2,0.1,0,0-0.2,0.1c-0.3,0.3,0.3-0.6,0.4-0.4c0.1,0.1-0.1,0.1-0.1,0.1
				C353,66.8,353,66.7,353,66.8z M353.4,66.6c-0.2,0-0.1-0.1-0.1-0.1l0.2-0.1c0,0,0,0,0.2,0c0.2,0,0,0,0.3-0.1c0.1,0,0.1-0.1,0.4,0
				l0,0.1c0,0-0.1,0.1-0.2,0.2l-0.2,0.1C354,66.5,353.7,66.6,353.4,66.6z M354.7,66.8c0,0-0.1,0-0.2,0c0,0-0.2,0-0.3,0
				c-0.1,0,0,0,0.2-0.1c0.1,0,0.1-0.1,0.2-0.1C354.6,66.7,354.7,66.8,354.7,66.8z M350.7,74.9c-0.1,0.2-0.5,0.2-0.4,0
				c0.1-0.1-0.1-0.1-0.3-0.1c-0.2,0,0.3-0.4,0.4-0.4c0,0,0.3-0.1,0.5,0C351.1,74.6,350.9,74.7,350.7,74.9z M353.3,72.6
				c-0.4,0.3-0.6,0.4-0.8,0.5c-0.2,0-0.2,0.1-0.5,0.2c-0.2,0.1-0.8,0.5-0.6,0.1l1-0.8c0,0,0.4-0.4,0.6-0.7c0.2-0.3,3-1.4,3.7-1.6
				c0.6-0.2,2.9-0.4,3.1-0.4c0.3,0-3.1,0.8-3.4,1c-0.3,0.2-0.5,0.4-0.5,0.4S353.8,72.3,353.3,72.6z M363.2,75.9
				c-0.2,0.1-0.1,0.1-0.1,0.1l-0.1,0.1l-0.7,0.3c0,0-0.6,0.2-1.6,0.4c-1,0.3-1.6,0-1.6,0l-0.1,0c0,0-0.2-0.4-0.5-0.8
				c-0.3-0.3-0.2-0.1-0.8-0.5c-0.6-0.4,0,0-0.3-0.2c-0.3-0.2,0,0-0.4-1c-0.4-1,0,0-0.1-0.1c-0.1-0.1-0.1-0.3-0.1-0.4
				c0-0.1-0.3-0.4-0.3-0.5c-0.1-0.1-0.2-0.3-0.4-0.4c-0.2-0.2-0.6-0.5-0.4-0.5c0,0,0,0,0.1,0c0,0,0,0,0,0c0.1,0,0.1,0,0.1,0l0.5-0.2
				l-0.2,0.1l-0.1,0.1l-0.2,0.2c0,0,0.1,0,0.2-0.1c0.1,0,0.2-0.1,0.2-0.1s0.1,0,0.4-0.1c0.3-0.1,0-0.2,0-0.2s0,0,0.1-0.1
				c0.1,0,0.2-0.1,0.3-0.1c0.1,0,0.3,0,0.4,0c0.2,0-0.1,0.1,0,0.1c0.1,0,0.2,0,0.2,0l-0.1,0.1l0.2,0l0.2,0l0.4-0.1
				c0,0,0.2-0.1,0.5-0.3c0.4-0.2,1.9,0,3.1,0.4c1.1,0.5,1.7,1.6,1.7,1.6s0.1,0.2,0.2,1.1C364.3,75.6,363.4,75.7,363.2,75.9z"/>
			<path fill="#FFFFFF" d="M346.9,86.2C346.9,86.2,346.9,86.2,346.9,86.2L346.9,86.2z"/>
			<path fill="#FFFFFF" d="M353.4,83C353.4,83,353.4,83.1,353.4,83l0.3-0.2C353.7,82.9,353.5,83,353.4,83z"/>
			<path fill="#FFFFFF" d="M353.1,83.2c0.1-0.1,0.2-0.1,0.3-0.2L353.1,83.2z"/>
			<path fill="#FFFFFF" d="M346.9,86.2L346.9,86.2L346.9,86.2z"/>
			<path fill="#FFFFFF" d="M346.9,86.2L346.9,86.2L346.9,86.2z"/>
			<path fill="#FFFFFF" d="M346.9,86.2C346.9,86.2,346.9,86.2,346.9,86.2S346.9,86.2,346.9,86.2z"/>
			<path fill="#FFFFFF" d="M346.9,86.2L346.9,86.2L346.9,86.2z"/>
			<path fill="#FFFFFF" d="M346.9,86.2C346.9,86.2,346.9,86.2,346.9,86.2C346.9,86.2,346.9,86.2,346.9,86.2z"/>
			<path fill="#FFFFFF" d="M346.9,86.2C346.9,86.2,346.9,86.2,346.9,86.2S346.9,86.2,346.9,86.2z"/>
			<path fill="#FFFFFF" d="M346.9,86.2L346.9,86.2L346.9,86.2z"/>
			<path fill="#FFFFFF" d="M346.9,86.2L346.9,86.2L346.9,86.2z"/>
			<path fill="#FFFFFF" d="M346.9,86.2L346.9,86.2L346.9,86.2z"/>
		</g>
		<g>
			<path fill="#FFFFFF" d="M364.2,37.6c-0.1-1.4-1.3-2.5-2.2-3c-0.9-0.5-2.7-1-3.6-0.9c-0.9,0.1-2.2,0.6-2.2,0.6
				c-0.7-1.7-2.4-1.4-2.8-1.4c-0.3,0-0.6,0-0.6,0c-0.8-0.5-0.9-2.1-1.3-1.9c-0.4,0.2-0.4,1-0.4,1.3c0,0.3-0.1,0.4-0.2,1.4
				c-0.2,1,0.2,1.8,0.2,1.8s0,0.1,0.1,0.7c0.1,0.6,0.4,0.6,0.7,0.7c0.3,0.1,0.2,0.2,0.2,0.2s-0.4,0.5-0.9,0.9
				c-0.4,0.4-3.1,2.6-3.5,2.9c-0.4,0.3-2.1,1.5-3.5,1.9c-1.4,0.4-1.4,0.4-1.6-0.3c-0.2-0.7,0.5-1.4,0.6-1.6c0-0.1-0.3-0.1-0.3-0.1
				l-0.1-0.2l-0.2,0l-0.2,0l0.1-0.3l-0.2,0.1c0,0-0.4,0.4-0.7,0.7c-0.2,0.2-0.6,0.7-0.8,1.8c-0.3,1.1,0.8,1.9,0.7,1.9
				c-0.1,0,0,0.5,1.1,1.2c1.1,0.7,2.5,0.7,3,0.6c0.5-0.1,0.7-0.4,1-0.8c0.3-0.4,1.4-1.6,1.7-2c0.2-0.4,2.8-2.6,4.8-4.2
				c2-1.7,5.2-3.1,5.8-3.2c0.5-0.1,1.6,0.3,2.1,1c0.5,0.7,0.2,1.4,0.2,1.5c-0.1,0.2-0.3,0.6-0.4,0.6c-0.1,0-0.5,0.4-0.5,0.4
				s0.2-0.1,0.5-0.1c0.3,0-0.7,0.4-1.1,0.7c-0.5,0.2-2.8,0.9-2.8,0.9s-0.4,0-1.1-0.2c-0.7-0.3-1.7-0.2-1.9-0.1c-0.2,0.1,0,0-0.1,0.1
				c-0.1,0.1-0.3,0.2-0.4,0.6c-0.1,0.4-0.5,0.7-1.1,1.1c-0.6,0.5-2.6,1.6-3.3,2c-0.8,0.4-1.7,0.4-1.9,0.6c-0.2,0.3,0.5,0.9,1.1,1.3
				c0.6,0.4,1.3,0.6,1.3,0.6s0,0-0.1,0.2c-0.1,0.1-0.1,0.1-0.2,0.2c0,0.1-0.2,0.2-0.4,0.5c-0.2,0.3-0.8,0.9-1.1,1
				c-0.3,0.2-0.6,0.7-0.7,1.2c-0.1,0.5,0.3,1.4,0.8,1.9c0.5,0.5,0.9,0.8,1.4,1c0.5,0.3,1,0.1,1,0.1l-0.1,0.2c0,0,0,0-0.1,0.4
				c0,0.4,0,0,0.1,0.1c0.1,0.1,0,0.2,0.1,0.4c0,0.2-0.1,0.7,0.1,1.3c0.2,0.5,0.7,1.2,1.1,1.4c0.3,0.2,1,1.3,1.6,1.7
				c0.6,0.4,0.6,0.5,2.1-0.2c1.5-0.6,3.6-3.3,4.2-4c0.6-0.7,1-2.3,1-2.3l0.1-0.2l0.1-0.2c0,0,0,0-0.1,0l-0.1-0.2
				c0-0.9-0.1-2.7-1.4-4.4c-1.3-1.7-3.8-1.7-3.8-1.7v-0.1c0,0,0.3,0.1,0.6-0.3c0.4-0.4,0.2-0.3,0.3-0.4c0.1-0.1,0.2-0.2,0.3-0.3
				c0.1-0.1,0.2-0.3,0.2-0.3s0.9-0.6,1-0.9c0.2-0.3,0.1-0.7,0.1-0.9c0-0.2-0.6-0.9-0.6-0.9l0.1,0c0,0,0.1,0,0.3,0c0.2,0,0,0,0.1,0
				c0.1,0,0.2,0,0.3,0c0.1,0,0.2-0.1,0.3-0.1c0.1,0,0.1,0,0.3,0.1c0.2,0,0.4-0.1,0.5-0.1c0.1,0,0.2,0,0.3-0.1c0.1,0,1.2-0.3,1.2-0.3
				l-0.2,0.2c0,0-0.1,0.1,0.2,0.1c0.1,0,0.3,0,0.3,0l-0.1,0.2l-0.4,0.1l-0.4,0.1c0,0-0.3,0.1-0.4,0.1l-0.3,0.1c0,0,0.3-0.2,0.3-0.3
				c0.1-0.1-0.2,0-0.2,0l-0.3,0.1l-0.3,0.1l-0.2,0.1l-0.4,0.1c0,0,0,0,0.3,0.1l-0.5,0.2C363.5,41.9,364.2,39,364.2,37.6z M356,37.2
				c-0.3,0.2-3,2-3.5,2.5c-0.5,0.5-1,0.8-1,0.8s-3,2.5-3.2,2.7c-0.3,0.2-0.1,0,0.2-0.4c0.3-0.4,0.4-0.5,0.5-0.6
				c0-0.1,0.3-0.3,0.3-0.3l-0.3,0c0.3-0.2,0.3-0.2,0.4-0.3c0.1-0.1,0.4-0.2,0.4-0.2s0.3-0.1,0.4-0.2c0.1-0.1,0.1-0.1,0.2-0.2
				c0.1-0.1-0.3,0.2,0.1-0.1c0.4-0.3,0.2-0.1,0.4-0.3c0.2-0.2,0.4-0.3,0.5-0.4c0.1-0.1,1.3-1.1,2-1.7c0.7-0.5,1.1-0.7,1.3-0.9
				c0.2-0.1,0,0.1,0,0.1l0.4-0.2c0,0,2.8-1.6,2.9-1.5C357.8,36.1,356.3,37.1,356,37.2z M352.2,55.3c0,0,0,0-0.5-0.5l0,0l0,0
				c0,0,0,0,0,0s0,0,0,0c0,0,0,0,0,0c0,0,0,0,0,0c0,0,0,0,0,0c0,0,0,0,0,0c0,0,0,0,0,0c0,0,0,0,0,0c0,0,0,0,0,0c0,0,0,0,0,0
				c0,0,0,0,0,0c0,0,0,0,0,0c0,0,0,0,0,0s0,0,0,0c0,0,0,0,0,0c0,0,0,0,0,0s0,0,0,0c0,0,0,0,0,0c0,0,0,0,0,0c0,0,0,0,0,0c0,0,0,0,0,0
				c0,0,0,0,0,0c0,0,0,0,0,0c0,0,0,0,0,0c0,0,0,0,0,0c0,0,0,0,0,0c0,0,0,0,0,0c0,0,0,0,0,0s0,0,0,0l0,0l0,0c0,0,0,0-0.2-0.2
				l-0.1-0.2c0,0,0-0.2,0-0.3c0-0.1,0-0.1,0-0.3c0-0.2-0.1-0.2-0.1-0.3c0-0.1,0-0.2,0.1-0.4c0.1-0.2,0.2-0.1,0.2-0.3
				c0.1-0.2,0.1-0.2,0.1-0.2c0,0.1,0.6,0.6,0.6,0.6s0,0-0.1,0.1c0,0,0,0.1,0,0.3c0.1,0.2,0,0.4,0,0.4s-0.3,0-0.2,0.2c0,0,0,0,0.1,0
				c0.1,0.1,0,0.1,0.1,0.2c0,0.1,0.1,0.2,0.1,0.2s0,0.1,0,0.2c0,0.1,0,0.2,0,0.2L352.2,55.3z M353,52.4c0.1,0.2,0,0-0.1,0.2
				c-0.1,0.2,0,0-0.2,0.3c-0.1,0.2,0,0-0.1,0.1c0,0.1-0.2,0.1-0.2,0.1l-0.1-0.2v-0.2l0.1-0.2c0,0,0-0.1,0-0.2l-0.2,0
				c0,0,0.1-0.1,0.2-0.2l0.3-0.2l0,0.3l-0.1,0.2l0.2,0.1C352.8,52.3,352.8,52.3,353,52.4C352.9,52.2,353.3,52.4,353,52.4z M357.3,54
				c0,0.1-0.1,0.1-0.1,0.1s-0.1,0.1-0.3,0.2c0,0,0,0.1,0,0.3l-0.2,0.2l-0.2,0.2l-0.3,0.2l-0.1,0.2l-0.3,0.3c0,0-0.6,0.4-1.1,0.6
				c-0.5,0.2-1.2-0.1-1.1-0.2c0,0,0.1-0.1,0.3-0.1c0.1,0,0.1-0.1,0.2-0.2c0.1-0.1,0.3-0.2,0.7-0.3c0.3-0.1,0.4-0.7,0.4-0.7l0.5-1.1
				c0,0-0.1-0.1,0-0.1c0.7-0.2,1.4,0.1,1.6,0.3C357.5,54,357.3,53.9,357.3,54z M355.2,48.8c0.5-0.1,1,0.1,1.3,0.3
				c0.3,0.2,0.7,0.8,0.7,0.8s0.1,0.1,0.2,0.2c0.1,0.1,0,0.1,0.1,0.2c0.1,0.1,0.1,0.1,0.2,0.4c0.1,0.3,0.4,1.1,0.4,1.1
				c0,0.2-0.1,0.1-0.3,0c-0.2-0.1-1.9-0.5-2.2-0.6c-0.3-0.1-0.6-0.6-0.6-0.6l0-0.2c0,0-0.1-0.1-0.4-0.4c-0.3-0.2-0.2-0.7-0.2-0.7
				s0.1-0.2,0.2-0.3c0.1-0.2,0,0,0-0.1c0.1-0.1,0.1,0,0.2-0.1C354.8,48.8,354.7,48.8,355.2,48.8z"/>
			<path fill="#FFFFFF" d="M353.7,41.1C353.9,41,353.5,41.2,353.7,41.1L353.7,41.1z"/>
			<path fill="#FFFFFF" d="M354.6,61.6c-0.1-0.1-0.1-0.1-0.2-0.2c-0.1-0.1-0.1-0.1-0.1-0.1s-0.1-0.1-0.3-0.1c-0.2,0-0.4,0-0.4,0
				c-0.1,0-0.2,0.1-0.4,0.1c-0.2,0-0.2,0-0.3,0c-0.1,0-0.1,0.1-0.3,0.1c-0.1,0-0.3,0.3-0.3,0.3s-0.1,0.1-0.1,0.2c0,0.1,0,0.1,0,0.2
				c-0.1,0.1-0.1,0.1-0.1,0.3c0,0.2,0,0.2,0,0.3c0,0.1,0.1,0.3,0.1,0.3s0,0.1,0.1,0.2c0.1,0.1,0.1,0.1,0.2,0.2
				c0.1,0.1-0.1,0,0.1,0.1c0.2,0.1,0.2,0.2,0.3,0.2c0.2,0-0.1-0.1,0.2,0c0.3,0.1,0.3,0.1,0.4,0.1c0.1,0,0.4-0.2,0.4-0.2
				c0.2-0.2,0.4-0.3,0.4-0.3l0.3-0.3c0-0.1,0.2-0.2,0.2-0.2l0.1-0.3c0,0,0.1-0.2-0.1-0.5C354.8,61.6,354.7,61.6,354.6,61.6z"/>
		</g>
		<path fill="#FFFFFF" d="M338.3,59l-0.3-0.1l-0.5-0.4l-0.7-0.3l-0.4-0.3l-0.4-0.1c-0.1-0.2-0.2-0.4-0.3-0.8c-0.4-1.1-1.1-4.2-1.3-6
			c-0.1-1.8-1-7.1-0.1-13.4c0,0,0.5-0.3,0.8-0.6c0.3-0.3,0.8-0.5,0.8-0.5l0.3-0.1c0,0,0.3,0,0.3-0.4c0-0.5,0.3-0.7-0.2-1
			c-0.5-0.3,0.9,0.2-0.5-0.3c-1.4-0.5-0.5-0.3-1.9-0.7c-1.5-0.4-1.8-0.5-2-0.5c-0.2,0-0.3,0.1-0.3,0.1s-0.3,0.3-0.5,0.3
			c-0.2,0-0.2,0-0.2,0l-0.6,0.3l-0.3,0.1l-0.3,0.1l-0.7,0.8v0.3l-0.1,0.4c0,0-0.1,4,0.5,9.1c-0.8-0.7-2-1.3-3.3-1.5
			c-1.7-0.3-4,1-4.6,1.5c-0.6,0.5-1.1,0.5-1.2-0.1c-0.1-0.6,0.5-1.1,1.2-2.1c0.7-1,2.9-2,4.6-3.1c1.7-1.1,2.3-0.8,2.3-0.8
			s-0.4-0.6-1.5-1.2c-1.1-0.6-1-0.1-1-0.1s-0.1,0-0.6,0.4c-0.5,0.5-1-0.3-1-0.3s0,0,0.6-0.3c0.5-0.2,1-0.2,0.9-0.3
			c0,0-0.1,0-0.3-0.1c-0.8-0.1-0.6-0.3-1.5,0c-0.9,0.3-1.3,0.8-3.4,0.5c-2.1-0.3-4.2-0.1-5.5,0.3c-1.3,0.3-2.3,2-1.6,1.6
			c0.7-0.4,0.7,0,0.7,0s0,0,0.1,0.2c0.1,0.2,0,0.4,0.6,0.6c0.6,0.2,0.3,0.3,0.9,0.2c0.6-0.1,0.6,0.4,0.6,0.4s-0.1,0.3,0.7,0.5
			c0.7,0.2,0.7,0.3,0.5,0.3l-0.8,0.3l-1.7,1.2c0,0,0,0-0.3,1.5c-0.3,1.5,4.4,4,4.4,4s1.5,0.3,2.5,0.5c0.9,0.2,2.1-0.2,2.7-0.1
			c0.5,0.1,0.8-0.1,0.8-0.1l-0.4-0.1c0,0,0.4-0.3,0.7-0.4c0,0,0.4-0.1,0.6-0.1c0.2,0,0.3-0.3,0.3-0.3l-0.3-0.3l0.8-0.6l0.5-0.6
			c0,0,0.6-0.2,1.3-0.2c0.4,0,0.7,0.2,1,0.5c0.3,1.8,0.6,3.7,1,5.6c0,0,0.8,2.2,1.2,3.4c-1.1-0.5-2-0.9-2.3-1c-0.7-0.2-2-0.6-2-0.6
			s-6.3-2.7-9.6-3.4c0,0,3.6,1.2,4.9,2c0,0-0.2,0.7-0.5,0.5c-0.3-0.3-0.8-0.5-0.8-0.5l-1.3-0.3c-0.5-0.3-0.8-0.4-0.8-0.4
			c-0.1-0.2-0.7-0.4-0.7-0.4c-0.5-0.3-1.3-0.5-1.3-0.5l-0.4-0.4l-0.9-0.3l-0.5,0.1c-0.4,0.3-0.5,0-0.5,0l0.1-0.5
			c-0.5,0.3-0.7,0.6-0.7,0.6l-0.1,0.3c0,0-0.3,0.3-0.3,0.5c-0.1,0.2-0.1,0.8-0.1,0.8L314,53l0.1,0.3c0,0,0.1,0.3,0.2,0.5
			c0.1,0.2,1.1,0.4,1.1,0.4l0.7,0.1c0,0,1,0,1.5,0.1c0.5,0.1,1.7,0,1.7,0l1.5,0.8l0.7-0.1c0,0,5.3,0.3,12.1,4.4
			c0.2,0.1,0.4,0.2,0.5,0.3c0.3,0.2,0.7,0.5,0.7,0.5s1.5,0.5,2.1,0.1c0.5-0.4,0.5-0.4,0.5-0.4c0.3-0.3,0.5,0.1,0.5,0.1l0.5-0.5
			l0.1-0.3l0.1-0.3L338.3,59z M325.8,44.6l-0.3,0.1l-0.3-0.3l0.9-0.3c2.1,0.2,3,0.8,3.4,1.2c0,0.1,0,0.2,0,0.3
			C328.3,44.7,325.8,44.6,325.8,44.6z M333.9,54l-0.2-0.7v-0.4l-0.2-0.8l-0.1-0.5l-0.1-0.3l-0.1-0.6l-0.1-0.5l-0.1-0.8
			c0,0-0.3-3.8-0.3-5.1c0-1.2,0.4-3.2,0.4-3.2l0.1,0.7c0,0,0.1,0.1,0.1,0.3c0,0.2-0.1,0.5-0.1,0.5l0.1,0.7c0,0-0.1,2-0.1,2.2
			c0,0.2,0.1,1,0.2,1.4c0.1,0.3,0.2,0.8,0.2,0.8l0.5,4.8l0.2,1.2l0.2,0.5l0.3,0.8L333.9,54z"/>
		<g>
			<path fill="#FFFFFF" d="M321.1,87.7L321.1,87.7L321.1,87.7z"/>
			<path fill="#FFFFFF" d="M321.1,87.8L321.1,87.8L321.1,87.8z"/>
			<path fill="#FFFFFF" d="M321.1,87.7C321.1,87.7,321.1,87.7,321.1,87.7C321.1,87.7,321.1,87.7,321.1,87.7z"/>
			<path fill="#FFFFFF" d="M321.2,87.8L321.2,87.8L321.2,87.8z"/>
			<path fill="#FFFFFF" d="M321.2,87.8L321.2,87.8L321.2,87.8z"/>
			<path fill="#FFFFFF" d="M321.2,87.8L321.2,87.8L321.2,87.8z"/>
			<path fill="#FFFFFF" d="M321.2,87.8C321.2,87.8,321.2,87.8,321.2,87.8C321.2,87.8,321.2,87.8,321.2,87.8z"/>
			<path fill="#FFFFFF" d="M321.2,87.8C321.2,87.8,321.2,87.8,321.2,87.8C321.2,87.8,321.2,87.8,321.2,87.8z"/>
			<path fill="#FFFFFF" d="M321.1,87.7C321.1,87.7,321.1,87.7,321.1,87.7L321.1,87.7z"/>
			<path fill="#FFFFFF" d="M317.8,82.8L317.8,82.8c0.1,0,0.2-0.1,0.2-0.1L317.8,82.8z"/>
			<path fill="#FFFFFF" d="M321.1,87.7C321.1,87.7,321.1,87.7,321.1,87.7S321.1,87.7,321.1,87.7z"/>
			<path fill="#FFFFFF" d="M321.1,87.7L321.1,87.7L321.1,87.7z"/>
			<path fill="#FFFFFF" d="M321.1,87.7L321.1,87.7L321.1,87.7z"/>
			<path fill="#FFFFFF" d="M321.1,87.7L321.1,87.7L321.1,87.7z"/>
			<path fill="#FFFFFF" d="M329.1,78.5L329.1,78.5L329.1,78.5z"/>
			<path fill="#FFFFFF" d="M321.2,87.8L321.2,87.8L321.2,87.8z"/>
			<path fill="#FFFFFF" d="M321.2,87.8L321.2,87.8L321.2,87.8z"/>
			<path fill="#FFFFFF" d="M321.2,87.8C321.2,87.8,321.2,87.8,321.2,87.8L321.2,87.8z"/>
			<path fill="#FFFFFF" d="M321.2,87.8C321.2,87.8,321.2,87.8,321.2,87.8C321.2,87.8,321.2,87.8,321.2,87.8z"/>
			<path fill="#FFFFFF" d="M329.4,78.4C329.5,78.3,329.2,78.5,329.4,78.4L329.4,78.4z"/>
			<path fill="#FFFFFF" d="M317.2,84.4c0.2-0.1,0.3-0.1,0.3-0.1S317.3,84.3,317.2,84.4z"/>
			<path fill="#FFFFFF" d="M329.1,78.5C329.1,78.5,329.1,78.5,329.1,78.5L329.1,78.5z"/>
			<path fill="#FFFFFF" d="M321.2,87.8C321.2,87.8,321.2,87.8,321.2,87.8C321.2,87.8,321.2,87.8,321.2,87.8z"/>
			<path fill="#FFFFFF" d="M321.2,87.8L321.2,87.8L321.2,87.8z"/>
			<path fill="#FFFFFF" d="M321.2,87.8L321.2,87.8L321.2,87.8z"/>
			<path fill="#FFFFFF" d="M321.2,87.8L321.2,87.8L321.2,87.8z"/>
			<path fill="#FFFFFF" d="M321.2,87.8C321.2,87.8,321.2,87.8,321.2,87.8C321.2,87.8,321.2,87.8,321.2,87.8z"/>
			<path fill="#FFFFFF" d="M321.2,87.8C321.2,87.8,321.2,87.8,321.2,87.8C321.2,87.8,321.2,87.8,321.2,87.8z"/>
			<path fill="#FFFFFF" d="M321.2,87.8L321.2,87.8L321.2,87.8z"/>
			<path fill="#FFFFFF" d="M329.2,78.6C329.2,78.6,329.2,78.6,329.2,78.6C329.2,78.6,329.2,78.6,329.2,78.6z"/>
			<path fill="#FFFFFF" d="M329.2,78.6C329.2,78.5,329.2,78.5,329.2,78.6C329.2,78.5,329.2,78.5,329.2,78.6z"/>
			<path fill="#FFFFFF" d="M329.2,78.5L329.2,78.5L329.2,78.5z"/>
			<path fill="#FFFFFF" d="M329.2,78.6C329.2,78.6,329.2,78.6,329.2,78.6C329.2,78.6,329.2,78.6,329.2,78.6z"/>
			<path fill="#FFFFFF" d="M329.2,78.6L329.2,78.6L329.2,78.6z"/>
			<path fill="#FFFFFF" d="M329.2,78.5L329.2,78.5L329.2,78.5z"/>
			<path fill="#FFFFFF" d="M329.2,78.5L329.2,78.5L329.2,78.5z"/>
			<path fill="#FFFFFF" d="M329.2,78.5L329.2,78.5L329.2,78.5z"/>
			<path fill="#FFFFFF" d="M329.2,78.5C329.2,78.5,329.2,78.5,329.2,78.5C329.2,78.5,329.2,78.5,329.2,78.5z"/>
			<path fill="#FFFFFF" d="M332.4,78.3l0.2-0.1l0.3,0c0.2,0.1,0.4,0.1,0.4,0.1s2.6-1.4,3.5-2.3c0.9-0.9,2.7-3.3,0.3-4.8
				c-2.3-1.5-4.5-0.6-3.6-1.6c0.9-1.1,3.3-3.4,1.5-5.4c-1.8-2-5-1.1-6.6-0.4c-1.6,0.6-4.3,3.1-4.9,3.5c0,0-0.2-0.6-0.9-0.8
				c-0.7-0.2-1.6-0.5-1.4-0.9c0.2-0.4,1-2.2,0.2-3c-0.8-0.8-1-1.7-1.7-1.6c-0.6,0.2-1.1,0.2-1.2,0.8c-0.1,0.5-0.1,0.9-0.1,0.9
				s0,1.5,0,2c0,0.6,0.1,0.9,0,1.2c-0.1,0.3-1,3.2-1.2,3.6c-0.2,0.3-0.7,0.7-1.4,0.9c-0.7,0.1-1.6,0.1-1.8,0
				c-0.3-0.1-0.9-0.3-0.7,0.1c0.2,0.4,0.1,1,0.8,1.2c0.7,0.2,1.5,0.5,1.5,0.5s1.1,0.1,1.2,0.5c0.1,0.4-0.1,0.9,0,1.8
				c0.1,0.9,0.1,1.2-0.2,1.8c-0.2,0.6-1,3.2-0.7,3.7c0.4,0.5,0.9,1.2,1.6,0.6c0.7-0.6,1.7-1,2.2-0.8c0.4,0.1,1.6,1.1,2,0.8
				c0.3-0.3,0.9-0.9,0.7-1.4c-0.2-0.5-0.9-1.4-0.7-1.8c0.1-0.4,1.8-2.8,2.4-3.5c0.6-0.7,1.3-1.8,1.1-2.6c-0.3-0.8-0.2-0.9-0.7-1.3
				c-0.3-0.2,2.4-2.7,3.4-3.4c1-0.7,3-2,3.7-1.5c0.8,0.6,0.2,1-0.2,1.8c-0.4,0.8-1.4,1.8-1.8,3.1c-0.4,1.3,0.7,2.9,2,3.4
				c1.2,0.5,2.8,0.3,3.1,0.3c0.3,0,0.1,0.2-0.2,0.6c-0.3,0.3-1.3,1.6-1.8,1.9c-0.6,0.3-1.3,0.5-1.3,0.5s1.4-0.3,0.8,0.1
				c-0.5,0.4-0.8,0.3-1.3,0.3c-0.5,0-1.1,0.1-1.3,0.1c-0.2,0-0.6,0-0.6,0s-0.9-0.3-1.3-0.4c-0.4-0.1-0.1,0-0.4-0.1
				c-0.3-0.1-0.7-0.6-1.1-0.6c-0.5,0-0.8,0-0.8-0.6c0-0.6,0-1.2,0-1.6c0-0.4-1.1,0.3-1.3,1.3c0,0-0.6,1.3-0.3,2.3
				c0.3,0.9,0.6,1.5,0.6,1.9c0,0.4-0.8,1.3-0.6,2.1c0.1,0.8,0.4,1.8,1.3,2.6c0,0,0.3,0.4,0.5,0.8c0.3,0.3,0.3,0.7,0.4,0.9
				c0.1,0.2,0.4,2.5-0.8,2.7c-1.2,0.3-3.2-0.6-4.6-2.6c-1.3-1.9-0.9-1.3-1.3-1.9c-0.4-0.6,0-0.6,0-0.6c0-0.2-0.1-0.3-0.1-0.3
				s0,0.1-0.2,0.1c-0.2,0-1.9-1.7-3.3-0.9c-1.5,0.8-1.8,2.2-1.8,2.2s-0.2,0.3-0.2-0.1c0-0.3,0.3-0.9,0.5-1.2l-0.3,0.3l-0.2,0v-0.2
				l0-0.2l0.1-0.2l0.1-0.2l0.1-0.2c0,0-0.8,0.5-1,1.2c-0.2,0.7-0.5,1-0.6,1.6c0,0.6,0.1,2,0.7,2.7c0.6,0.7,1.4,1.1,1.8,0.9
				c0.5-0.2,0.9-0.2,1-0.6c0.2-0.4,0.1-0.5,0.2-0.9c0.1-0.3,0.3-0.5,0.3-0.5s-0.3,0.1-0.3-0.1c0-0.3,0.3-0.3,0.3-0.3
				s0.3-0.2,0.5-0.5c0.2-0.3,0.4-0.6,0.4-0.6l0.4-0.4l0.8-1.1c-0.1,0.1-0.3,0.3-0.5,0.4c-0.4,0.3-0.5,0.2-0.5,0.2
				c-0.2,0.1,0.7-0.7,0.7-0.9c0-0.2-1.1,0.9-1.5,1.1c-0.4,0.2-0.5,0.6-0.4,0.2c0.1-0.2,0.3-0.4,0.5-0.5c-0.2,0.1-0.5,0.2-0.7,0.3
				c-0.3,0.1-0.6,0.1-0.6,0c0-0.1,0.1-0.3,0.1-0.3l0.3-0.3c0,0-0.6,0.1-0.7,0.3c-0.1,0.2-0.4,0.1,0.1-0.2c0.5-0.3,1.8-1.2,1.8-1.2
				l0.3-0.2c-0.5,0.3-2.1,1.2-2.4,1.3c-0.3,0.1-0.8,0.3-0.5-0.1c0.2-0.3,0.9-1.7,2-1.8c1-0.2,1.7,0.8,1.9,1c0.3,0.2,1.2,1.2,0.9,1.4
				c-0.3,0.2-0.4,0-0.4,0c-0.2-0.1-0.2-0.1-0.2-0.1l-0.1,0.3c0,0-0.2,0.3,0.5,0.8c0.6,0.5,0.7,0.9,0.9,0.9c0.2,0.1,0.4,0.3,0.4,0.3
				l0.1,0.2c0.1,0.1,0.1,0.1,0.1,0.1s0,0.2,0.1,0.3c0.1,0.1,0.2,0.2,0.2,0.2c0,0.2,0,0.2,0,0.2c0.3,0.2,0.5,0.3,0.5,0.3l0.2,0.2
				l0.2,0.2l0,0.1l0.3,0.2l0.2,0.2c0,0.1,0,0.1,0,0.1l0.2,0.3l0.2,0.2c-0.2,0.1-0.2,0.1,0,0.2c0.1,0.1,0.1,0.1,0.1,0.1l0.4,0.3
				l0.2,0.2c0,0,0.2,0.3,0.2,0.4c0,0.1,1,1.1,1.6,0.9c0.6-0.2,1.9-1.8,2.1-2.2c0.2-0.4,0.7-1,0.5-1.4c-0.2-0.4,0.3-1,0.3-1.2
				c0-0.3,0.1-2-0.9-3.3c-1-1.3-2.3-2.5-2-3.2c0,0,0.4,0,0.8,0c0.5,0,1.6-0.8,1.6-1.4c0-0.6,0-1.2,0-1.2l-0.1-0.2c0,0,0-0.1-0.1-0.2
				c-0.1-0.1-0.2-0.3-0.2-0.3s0.1-0.3,0.7-0.1c0.6,0.3,0.9,0.4,0.9,0.4s0.1,0.2-0.2,0.2c-0.2,0-0.3-0.1-0.5,0c-0.2,0-0.2,0-0.2,0
				l-0.2,0c0,0,0,0.2,0.2,0.2c0.2,0,0.3,0,0.5,0c0.2,0,0.3,0,0.4,0c0.2-0.1,0.3-0.1,0.3-0.1l0.3,0.2l0.2,0c-0.2,0.1-0.6,0.1-0.6,0.1
				c-0.4,0-0.6,0-0.6,0c-0.2,0-0.2,0-0.2,0h-0.2l-0.2,0c0,0-0.5,0.2,0.2,0.2c0.7,0,0.7,0,0.7,0l0.4,0.1c0.2-0.1,0.4-0.1,0.4-0.1
				l0.3,0l0.2,0l0.2-0.1h0.4c0,0,0.1,0.1,0.2,0.2c0.1,0,0.3,0.1,0.3,0.1l-0.5,0c-0.3,0-0.3,0-0.3,0l-0.2,0l-0.5,0
				c-0.3,0-0.2,0-0.3,0c-0.1,0.1-0.1,0.1-0.1,0.1c0.2,0.1,0.2,0.2,0.3,0.2l0.5-0.1l0.3-0.1l0.6,0.1c0.3-0.1,0.3-0.1,0.5-0.2
				c0.3-0.1,0.5-0.1,0.5-0.1l0.3-0.1L332.4,78.3z M319.1,72.6c-0.2,0.3-0.7,1-0.6,0.5c0-0.5,0.1-0.8,0.3-1.1
				c0.2-0.3,0.2-0.3,0.2-0.3s1.4-1.3,1.4-1C320.4,70.8,319.3,72.3,319.1,72.6z M320.1,67.9c-0.4,0.6-0.3-0.4-0.1-0.8
				c0.2-0.4,0.5,0.3,0.5,0.3v0v0C320.5,67.4,320.4,67.4,320.1,67.9z M321.4,74.6L321.4,74.6L321.4,74.6L321.4,74.6L321.4,74.6
				C321.4,74.6,321.4,74.6,321.4,74.6C321.4,74.6,321.4,74.6,321.4,74.6L321.4,74.6C321.4,74.6,321.4,74.6,321.4,74.6L321.4,74.6
				C321.4,74.7,321.4,74.7,321.4,74.6L321.4,74.6L321.4,74.6L321.4,74.6L321.4,74.6L321.4,74.6L321.4,74.6L321.4,74.6l0,0.1l0,0
				c0,0,0,0,0,0v0l0,0v0c0,0,0,0,0,0l0,0L321.4,74.6L321.4,74.6L321.4,74.6L321.4,74.6L321.4,74.6L321.4,74.6L321.4,74.6L321.4,74.6
				C321.4,74.7,321.4,74.7,321.4,74.6L321.4,74.6C321.4,74.6,321.4,74.6,321.4,74.6L321.4,74.6C321.4,74.6,321.4,74.6,321.4,74.6
				C321.4,74.6,321.4,74.6,321.4,74.6L321.4,74.6L321.4,74.6L321.4,74.6L321.4,74.6c0,0,0,0,0,0.2c0,0.2-0.3,0.2-0.5,0.5
				c-0.2,0.3-0.2-0.3-0.2-0.5c0-0.3,0.3-0.5,0.4-0.6l0.3,0.1C321.4,74.2,321.5,74.3,321.4,74.6z"/>
			<path fill="#FFFFFF" d="M329.5,78.8C329.5,78.8,329.5,78.8,329.5,78.8h-0.2H329.5z"/>
			<path fill="#FFFFFF" d="M329.2,78.6L329.2,78.6L329.2,78.6z"/>
			<path fill="#FFFFFF" d="M329.2,78.6L329.2,78.6L329.2,78.6z"/>
			<path fill="#FFFFFF" d="M329.2,78.6C329.2,78.6,329.2,78.6,329.2,78.6C329.2,78.6,329.2,78.6,329.2,78.6z"/>
			<path fill="#FFFFFF" d="M329.1,78.5C329.1,78.5,329.1,78.5,329.1,78.5C329.1,78.5,329.1,78.5,329.1,78.5z"/>
			<path fill="#FFFFFF" d="M329.2,78.5L329.2,78.5L329.2,78.5z"/>
			<path fill="#FFFFFF" d="M329.1,78.5L329.1,78.5L329.1,78.5z"/>
			<path fill="#FFFFFF" d="M329.1,78.5C329.1,78.5,329.1,78.5,329.1,78.5S329.1,78.5,329.1,78.5z"/>
			<path fill="#FFFFFF" d="M329.1,78.5C329.1,78.5,329.1,78.5,329.1,78.5S329.1,78.5,329.1,78.5z"/>
			<path fill="#FFFFFF" d="M329.2,78.5C329.2,78.5,329.2,78.5,329.2,78.5C329.2,78.5,329.2,78.5,329.2,78.5z"/>
			<path fill="#FFFFFF" d="M314.5,82.8c0,0-0.1,0.1-0.2,0.2l0,0C314.3,83,314.7,82.6,314.5,82.8z"/>
			<path fill="#FFFFFF" d="M329.1,78.5C329.1,78.5,329.1,78.5,329.1,78.5S329.1,78.5,329.1,78.5z"/>
			<path fill="#FFFFFF" d="M329.2,78.5L329.2,78.5L329.2,78.5z"/>
			<path fill="#FFFFFF" d="M329.2,78.5C329.2,78.5,329.2,78.5,329.2,78.5C329.2,78.5,329.2,78.5,329.2,78.5z"/>
			<path fill="#FFFFFF" d="M329.2,78.5L329.2,78.5C329.2,78.5,329.2,78.5,329.2,78.5z"/>
			<path fill="#FFFFFF" d="M329.2,78.5L329.2,78.5L329.2,78.5z"/>
			<path fill="#FFFFFF" d="M329.2,78.5C329.2,78.5,329.2,78.5,329.2,78.5C329.2,78.5,329.2,78.5,329.2,78.5z"/>
			<path fill="#FFFFFF" d="M329.2,78.5C329.2,78.5,329.2,78.5,329.2,78.5C329.2,78.5,329.2,78.5,329.2,78.5z"/>
			<path fill="#FFFFFF" d="M318.9,83.9c0.1-0.1,0.1-0.1,0.1-0.1L318.9,83.9z"/>
			<path fill="#FFFFFF" d="M339.8,86.4c0-0.3-1.6-2.5-2.3-2.9c-0.4-0.3-0.5,0-0.5,0c0,0.1,0,0.1,0,0.1v0.2l-0.3,0.1
				c0,0-1.9-0.6-2.1-0.9c-0.2-0.3-0.4-0.6-0.4-0.6l0-0.2c0,0-0.9-0.9-1.1-1.2c-0.2-0.3-0.7-0.7-0.7-0.7l-0.3-0.3
				c0,0-0.2,0.9,0.1,1.7c0.3,0.8,1.3,3.6,1.5,3.8c0.2,0.3-1.6-0.3-0.8,0.1c0.8,0.4,1.3,0.6,1.3,0.6s0.3,0.4-0.3,0.4
				c-0.6,0-1.7,0.4,0.3,0.9c2,0.6,2.3,0.2,2.3,0c0-0.2,1.4,0.5,1.7,0.2c0.3-0.3,0.7-0.4,0.7-0.4S339.8,86.7,339.8,86.4z"/>
		</g>
	</g>
</g>
<g>
	<path fill="#FFFFFF" d="M34.9,66c0.8-0.6,1.5-1,2.2-1.1c0.6-0.1,1.2,0,1.7,0.2c0.5,0.2,1,0.6,1.5,1.1c0.5,0.5,1,1,1.4,1.5
		c-2.4,2.8-5.1,4.8-8,6c-2.9,1.2-6.1,1.8-9.7,1.9c-3.3,0-6.4-0.6-9.3-1.9c-2.9-1.3-5.4-3-7.6-5.1c-2.2-2.2-3.9-4.7-5.2-7.6
		C0.6,58.1,0,55,0,51.7c0-3.3,0.6-6.4,1.9-9.3c1.3-2.9,3-5.4,5.2-7.6c2.2-2.2,4.7-3.9,7.6-5.1c2.9-1.2,6-1.9,9.3-1.9
		c3.6,0.1,6.8,0.8,9.7,1.9c2.9,1.2,5.5,3.1,8,5.9c-0.5,0.6-1,1.1-1.4,1.5c-0.5,0.5-1,0.8-1.5,1.1c-0.5,0.3-1.1,0.3-1.7,0.2
		c-0.6-0.1-1.3-0.5-2.2-1.1c-1.6-1.3-3.4-2.2-5.2-2.8c-1.9-0.6-3.7-0.9-5.6-0.9c-2.5,0-4.9,0.5-7.1,1.4c-2.2,0.9-4.2,2.2-5.9,3.8
		c-1.7,1.6-3,3.5-4,5.7c-1,2.2-1.4,4.6-1.4,7.1c0,2.6,0.5,4.9,1.4,7.1c1,2.2,2.3,4.1,4,5.7c1.7,1.6,3.6,2.9,5.9,3.8
		c2.2,0.9,4.6,1.4,7.1,1.4c1.9,0,3.7-0.3,5.6-0.9C31.6,68.2,33.3,67.3,34.9,66z"/>
	<path fill="#FFFFFF" d="M92.6,70c0.6,0.3,1.1,0.6,1.4,1.1c0.3,0.5,0.4,1,0.4,1.6v2.8h-8.1V49.3c0-2.1-0.3-4.1-0.8-5.9
		c-0.6-1.8-1.4-3.4-2.5-4.7c-1.1-1.3-2.6-2.3-4.3-3c-1.7-0.7-3.8-1.1-6.3-1.1c-1.7,0-3.4,0.3-5.1,0.8c-1.6,0.6-3.1,1.4-4.4,2.5
		c-1.3,1.1-2.3,2.4-3.1,4c-0.8,1.6-1.2,3.4-1.2,5.5v28h-8.1v-2.8c0-0.8,0.2-1.3,0.5-1.7c0.3-0.4,0.8-0.7,1.3-1l0.3-0.3
		c0.1-0.1,0.1-0.2,0.2-0.3c0.1-0.1,0.1-0.3,0.1-0.5V16.5c0-0.2,0-0.3-0.1-0.5c-0.1-0.1-0.1-0.2-0.2-0.4l-0.3-0.3
		c-1.2-0.6-1.8-1.5-1.8-2.7V9.9c0.8,0,1.7,0.2,2.7,0.5c1,0.3,1.9,0.8,2.7,1.4c0.8,0.6,1.5,1.2,2,2c0.5,0.7,0.8,1.6,0.8,2.4v17.4
		c0,0.6,0.3,0.8,0.8,0.6c0.6-0.2,1.1-0.5,1.5-0.9c1.1-1.1,2.6-2.1,4.5-3c1.8-0.9,4.1-1.4,6.9-1.4c6.8,0,11.8,1.8,14.9,5.5
		C90.4,38.1,92,43.3,92,50v18.8c0,0.4,0.1,0.7,0.3,0.8C92.3,69.8,92.4,69.9,92.6,70z"/>
	<path fill="#FFFFFF" d="M141.2,69.5c0.2,0.1,0.5,0.5,0.7,1c0.2,0.5,0.4,1.1,0.6,1.8c0.2,0.7,0.3,1.3,0.3,1.9
		c0.1,0.6,0.1,1.1,0.1,1.3h-3c-1.3,0-2.4-0.6-3.2-1.7c-0.8-1.1-1.4-2.4-1.6-3.8c-0.1-0.2-0.2-0.4-0.5-0.5c-0.3-0.1-0.5,0-0.7,0.2
		c-0.8,0.9-1.7,1.7-2.7,2.4c-1.1,0.7-2.2,1.3-3.4,1.9c-1.2,0.5-2.5,0.9-3.7,1.2c-1.3,0.3-2.4,0.4-3.4,0.3c-2.2,0-4.3-0.3-6.3-1
		c-2-0.7-3.8-1.6-5.4-2.9c-1.6-1.2-2.9-2.8-3.8-4.6c-1-1.8-1.4-3.9-1.4-6.3c0-2.9,0.5-5.5,1.6-7.6c1.1-2.2,2.6-3.9,4.5-5.3
		c1.9-1.4,4-2.4,6.5-3c2.5-0.7,5.1-1,7.8-1c1.6,0,3.2,0.2,4.8,0.5c1.6,0.3,3.1,0.8,4.5,1.6l0.4,0.2c0.3,0.1,0.6,0.1,0.8,0
		c0.2-0.1,0.4-0.4,0.4-0.8c0-0.4,0-1,0-1.7c0-0.7-0.1-1.4-0.1-2.1c-0.1-0.7-0.1-1.3-0.2-1.7c-0.1-0.5-0.1-0.7-0.2-0.7
		c-0.4-0.9-1-1.7-1.7-2.4c-0.8-0.7-1.7-1.2-2.7-1.6c-1-0.4-2.2-0.7-3.4-0.8c-1.3-0.1-2.5-0.2-3.8-0.2c-1.9,0-3.7,0.1-5.3,0.4
		c-1.6,0.3-3.2,0.7-5,1.2c-0.5,0.1-0.9,0.2-1.2,0.2c-0.4,0-0.8-0.1-1.3-0.4c-0.5-0.3-0.9-0.6-1.3-1.1c-0.4-0.4-0.8-0.9-1.1-1.3
		c-0.3-0.4-0.6-0.8-0.8-1.1c2.9-1.4,5.6-2.4,7.9-2.9c2.3-0.5,4.9-0.8,7.7-0.8c1.9,0,3.7,0.1,5.5,0.4c1.8,0.3,3.5,0.8,5,1.5
		c1.6,0.7,2.9,1.6,4.1,2.7c1.2,1.1,2.1,2.5,2.7,4.2c0.4,1.1,0.7,2.2,0.8,3.4c0.1,1.2,0.1,2.4,0.1,3.7v24.4c0,0.4,0.1,0.7,0.3,0.8
		C141,69.3,141.1,69.4,141.2,69.5z M120.8,69.8c1.6,0,3.3-0.3,5-0.8c1.7-0.6,3.2-1.5,4.5-2.9c1.3-1.4,2.4-3.1,3.3-5.3
		c0.9-2.2,1.3-4.8,1.3-8c0-0.3-0.1-0.6-0.4-0.7c-1.6-0.9-3.4-1.6-5.4-2.1c-2-0.5-3.8-0.7-5.4-0.6c-1.8,0-3.6,0.2-5.3,0.7
		c-1.7,0.4-3.2,1.1-4.6,2c-1.3,0.9-2.4,2-3.2,3.4c-0.8,1.4-1.2,3.1-1.2,5c0,1.6,0.3,3,1,4.2c0.7,1.2,1.5,2.1,2.6,2.9
		c1.1,0.8,2.3,1.3,3.7,1.7C118,69.6,119.4,69.8,120.8,69.8z"/>
	<path fill="#FFFFFF" d="M155.6,75.5V35.6c0-0.3,0-0.4-0.1-0.6c-0.1-0.1-0.1-0.3-0.2-0.4c-0.1-0.1-0.2-0.2-0.3-0.2
		c-0.6-0.2-1-0.6-1.3-1.1c-0.3-0.5-0.5-1-0.5-1.5v-2.9c0.8,0,1.7,0.2,2.6,0.5c0.9,0.3,1.8,0.8,2.6,1.4c0.8,0.6,1.5,1.2,2,2
		c0.5,0.8,0.8,1.6,0.8,2.4v33.6c0,0.4,0.1,0.7,0.3,0.9c0.1,0.1,0.2,0.2,0.3,0.3c1.2,0.5,1.9,1.3,1.9,2.5v2.9H155.6z"/>
	<path fill="#FFFFFF" d="M192,49.4c1.7,0.7,3.4,1.5,5.2,2.3c1.8,0.9,3.5,1.9,5,3c1.5,1.2,2.8,2.5,3.7,4c1,1.5,1.5,3.2,1.5,5.2
		c0,2.3-0.6,4.2-1.7,5.7c-1.1,1.6-2.5,2.8-4.3,3.8c-1.7,1-3.6,1.7-5.6,2.1c-2,0.4-3.9,0.7-5.6,0.7c-1.9,0-3.8-0.3-5.8-0.8
		c-2-0.6-3.9-1.2-5.6-2.1c-0.5,0.3-1,0.5-1.6,0.5c-0.6,0-1.1-0.2-1.6-0.5c-0.7-0.5-1.2-0.8-1.5-1c-0.3-0.2-0.6-0.4-0.9-0.7
		c0.9-1.4,1.7-2.6,2.4-3.6c0.7-0.9,1.3-1.9,1.9-2.8l6.3,3.7c0.7,0.4,1.7,0.8,3,1.1c1.3,0.3,2.5,0.4,3.6,0.4c1.4,0,2.8-0.2,4.1-0.5
		c1.3-0.3,2.5-0.8,3.5-1.4c1-0.6,1.8-1.3,2.4-2.1c0.6-0.8,0.9-1.6,0.9-2.6c0-1.2-0.3-2.2-1-3c-0.7-0.8-1.5-1.6-2.6-2.3
		c-1.1-0.7-2.2-1.3-3.5-1.8c-1.3-0.5-2.6-1-3.9-1.5c-1.5-0.6-3.1-1.3-4.9-2.2c-1.8-0.8-3.4-1.8-4.9-3c-1.5-1.2-2.8-2.5-3.8-4
		c-1-1.5-1.5-3.3-1.5-5.4c0-1.8,0.4-3.5,1.3-5.1c0.9-1.6,2-2.9,3.5-4c1.5-1.1,3.2-2,5.1-2.7c1.9-0.7,4-1,6.1-1
		c1.2,0,2.4,0.1,3.8,0.4c1.3,0.2,2.7,0.6,3.9,1.2c1.3,0.5,2.5,1.2,3.7,2.1c1.2,0.8,2.2,1.9,3.1,3c-0.3,0.4-0.7,0.8-1,1.2
		c-0.4,0.4-0.8,0.8-1.3,1.1c-0.5,0.3-1,0.4-1.5,0.5c-0.5,0-1-0.1-1.6-0.5c-1.3-1-2.8-1.8-4.4-2.3c-1.6-0.5-3.2-0.8-4.8-0.8
		c-1.4,0-2.7,0.2-3.9,0.6c-1.3,0.4-2.3,0.9-3.3,1.5c-0.9,0.6-1.7,1.4-2.2,2.2c-0.5,0.9-0.8,1.8-0.8,2.7c0,1.1,0.4,2.1,1.1,3
		c0.7,0.8,1.6,1.6,2.7,2.3c1.1,0.7,2.2,1.3,3.5,1.9C189.8,48.5,190.9,49,192,49.4z"/>
	<path fill="#FFFFFF" d="M284.5,70c0.6,0.2,1,0.5,1.3,1c0.3,0.5,0.4,1,0.4,1.6v2.9h-8v-7.9V45.8c0-2-0.4-3.7-1.1-5.2
		c-0.7-1.4-1.6-2.6-2.8-3.5c-1.1-0.9-2.3-1.6-3.7-2c-1.3-0.4-2.7-0.7-4-0.7c-3.9,0-6.9,1-9.1,3.1c-2.2,2.1-3.3,5.1-3.3,9v21.1v1.2
		c0,0.4,0.1,0.7,0.3,0.8c0.1,0.1,0.2,0.2,0.3,0.3c0.6,0.2,1,0.5,1.3,1c0.3,0.5,0.5,1,0.5,1.6v2.9h-8.1v-2.8v-0.1V45.8
		c0-2.1-0.4-3.9-1-5.4c-0.7-1.5-1.6-2.6-2.7-3.5c-1.1-0.9-2.4-1.5-3.7-1.9c-1.3-0.4-2.7-0.6-4-0.6c-3.7,0-6.8,1.1-9.1,3.3
		c-2.3,2.2-3.5,5.2-3.5,8.9v28.8h-8.1v-2.9c0-0.6,0.2-1.1,0.5-1.6c0.3-0.5,0.7-0.8,1.2-1l0.3-0.3c0.3-0.2,0.4-0.5,0.4-0.8V35.3
		c0-0.3-0.1-0.6-0.4-0.8l-0.3-0.3c-1.1-0.5-1.7-1.4-1.7-2.6v-2.9c0.8,0,1.5,0.1,2.3,0.4c0.8,0.3,1.6,0.6,2.3,1.1
		c0.7,0.5,1.4,1,2,1.7c0.6,0.7,1,1.4,1.3,2.2c0.3,0.7,0.6,0.7,1.1-0.1c1.4-1.9,3.2-3.2,5.3-4c2.1-0.8,4.2-1.2,6.4-1.2
		c1.3,0,2.7,0.1,4.1,0.3c1.4,0.2,2.8,0.6,4.1,1.1c1.3,0.5,2.5,1.3,3.6,2.2c1.1,0.9,2,2,2.8,3.4c0.1,0.1,0.3,0.2,0.5,0.3
		c0.2,0.1,0.4-0.1,0.6-0.4c1.6-2.3,3.7-4,6.1-5.2c2.5-1.2,5.1-1.7,7.9-1.7c2.1,0,4.2,0.3,6.3,1c2.1,0.7,3.9,1.8,5.5,3.2
		c1.6,1.4,2.9,3.2,3.8,5.4c1,2.2,1.5,4.7,1.5,7.6v21.7v1.2c0,0.4,0.1,0.7,0.3,0.8C284.3,69.8,284.4,69.9,284.5,70z"/>
</g>
<g>
	<path fill="#FFFFFF" d="M287.3,31.8c0,1,0,2.2,0.1,3.1c-0.1,0-0.3,0-0.4,0c-0.1,0-0.3,0-0.4,0c0-0.9,0.1-2.1,0.1-3.1
		c0-0.6,0-1.8,0-2.3h-0.2c-0.9,0-1.3,0-1.6,0.1c0-0.1,0-0.2,0-0.3c0-0.1,0-0.2,0-0.3c0.4,0,1.4,0.1,2.1,0.1c0.7,0,1.7,0,2.1-0.1
		c0,0.1,0,0.2,0,0.3c0,0.1,0,0.2,0,0.3c-0.3,0-0.7-0.1-1.6-0.1h-0.2C287.3,30,287.3,31.2,287.3,31.8z"/>
	<path fill="#FFFFFF" d="M290.6,29.2c0.4,0.8,2,3.9,2.5,4.6c0.7-1.2,1.7-3.1,2.5-4.6h0.2c0.2,1.7,0.5,4.7,0.7,5.8
		c-0.1,0-0.3,0-0.4,0c-0.1,0-0.3,0-0.4,0c0-0.6-0.3-3.2-0.4-4.2c-0.3,0.5-1.5,2.8-2.2,4.2h-0.2c-0.4-0.9-1.4-2.9-2.1-4.1
		c-0.1,0.7-0.4,3.2-0.4,4.2c-0.1,0-0.2,0-0.3,0c-0.1,0-0.2,0-0.3,0c0.2-1.1,0.7-4.5,0.8-5.8H290.6z"/>
</g>
</svg>
