<?xml version="1.0" encoding="utf-8"?>
<!-- Generator: Adobe Illustrator 18.0.0, SVG Export Plug-In . SVG Version: 6.00 Build 0)  -->
<!DOCTYPE svg PUBLIC "-//W3C//DTD SVG 1.1//EN" "http://www.w3.org/Graphics/SVG/1.1/DTD/svg11.dtd">
<svg version="1.1" id="Layer_1" xmlns="http://www.w3.org/2000/svg" xmlns:xlink="http://www.w3.org/1999/xlink" x="0px" y="0px"
	 viewBox="36 220.7 511.7 330.1" enable-background="new 36 220.7 511.7 330.1" xml:space="preserve">
<ellipse fill="none" stroke="#FFFFFF" stroke-miterlimit="10" cx="293.7" cy="517.9" rx="254" ry="32.8"/>
<g>
	<g>
		<g>
			<path fill="#FFFFFF" d="M313.9,434.6c-42.6-2.7-48.8-44-44.8-79.4c5.4-47.2,42.3-93.3,74.3-125.4c20.3-20.3,0.9-1.5-8,7.4
				c-30.4,30.5-58.3,61.5-79,99.6c-20.9,38.5-34.4,122.7,28.6,126.7C294.3,464,305.2,434,313.9,434.6L313.9,434.6z"/>
		</g>
	</g>
	<g>
		<g>
			<path fill="#FFFFFF" d="M191.5,434.6c-42.6-2.7-48.8-44-44.8-79.4c5.4-47.2,42.3-93.3,74.3-125.4c20.3-20.3,0.9-1.5-8,7.4
				c-30.3,30.5-58.3,61.5-79,99.6c-20.9,38.5-34.4,122.7,28.6,126.7C171.9,464,182.8,434,191.5,434.6L191.5,434.6z"/>
		</g>
	</g>
	<g>
		<g>
			<path fill="#FFFFFF" d="M456.7,434.6c-42.6-2.7-48.8-44-44.8-79.4c5.4-47.2,42.3-93.3,74.3-125.4c20.3-20.3,0.9-1.5-8,7.4
				c-30.4,30.5-58.3,61.5-79,99.6c-20.9,38.5-34.4,122.7,28.6,126.7C437.1,464,448,434,456.7,434.6L456.7,434.6z"/>
		</g>
	</g>
</g>
</svg>
